<svg id="Capa_1" data-name="Capa 1" xmlns="http://www.w3.org/2000/svg" xmlns:xlink="http://www.w3.org/1999/xlink" viewBox="0 0 550 119"><defs><style>.cls-1{fill:#142a54;}.cls-2{fill:#4aedc2;}.cls-3,.cls-5,.cls-6{fill:#fff;}.cls-4,.cls-5,.cls-8{stroke:#fff;}.cls-4,.cls-5,.cls-6,.cls-8{stroke-miterlimit:10;}.cls-4{fill:url(#Degradado_sin_nombre_4);}.cls-6{stroke:#00d191;}.cls-7,.cls-8{fill:#63aa73;}</style><radialGradient id="Degradado_sin_nombre_4" cx="57.26" cy="58.86" r="54.36" gradientTransform="translate(0.1 -0.3)" gradientUnits="userSpaceOnUse"><stop offset="0" stop-color="#fcee21"/><stop offset="1" stop-color="#f6a801"/></radialGradient></defs><rect class="cls-1" width="550" height="119"/><path class="cls-2" d="M122.74,46.54A17.71,17.71,0,0,0,128.51,60a18.7,18.7,0,0,0,5.93,3.61A20.77,20.77,0,0,0,141.27,65a19.05,19.05,0,0,0,5.7-.63A17.26,17.26,0,0,0,156.58,58a18,18,0,0,0,2.9-5.92l4.93,1.49a23.41,23.41,0,0,1-3.34,6.8,24.47,24.47,0,0,1-5.21,5.39,23.74,23.74,0,0,1-6.67,3.56,24.11,24.11,0,0,1-17.06-.59,24.21,24.21,0,0,1-12.75-12.76,24,24,0,0,1,0-18.61,24,24,0,0,1,12.75-12.79,24.11,24.11,0,0,1,17.06-.59,23.71,23.71,0,0,1,6.67,3.55,24.74,24.74,0,0,1,5.21,5.4,23.41,23.41,0,0,1,3.34,6.8l-4.93,1.37a18.09,18.09,0,0,0-2.62-5.3,19.42,19.42,0,0,0-4.08-4.21,18.76,18.76,0,0,0-5.21-2.78,18.46,18.46,0,0,0-6-1,17.85,17.85,0,0,0-7,1.44,19.59,19.59,0,0,0-6,3.93,18.91,18.91,0,0,0-4.18,5.95A18,18,0,0,0,122.74,46.54Z" transform="translate(0.1 -0.3)"/><path class="cls-2" d="M193.81,22.52a23.43,23.43,0,0,1,9.29,1.87,24.07,24.07,0,0,1,12.77,12.79,24.23,24.23,0,0,1,0,18.62,24.4,24.4,0,0,1-5.14,7.61,24.09,24.09,0,0,1-7.63,5.14,24.06,24.06,0,0,1-18.6,0A24.17,24.17,0,0,1,171.76,55.8a24.23,24.23,0,0,1,0-18.62A24.15,24.15,0,0,1,184.5,24.39,23.35,23.35,0,0,1,193.81,22.52Zm0,42.79a18.36,18.36,0,0,0,7.31-1.47,18.72,18.72,0,0,0,10-10,18.84,18.84,0,0,0,0-14.59,18.72,18.72,0,0,0-10-10,18.91,18.91,0,0,0-14.62,0,18.74,18.74,0,0,0-10,10,18.84,18.84,0,0,0,0,14.59,18.75,18.75,0,0,0,4,6,18.8,18.8,0,0,0,13.3,5.49Z" transform="translate(0.1 -0.3)"/><path class="cls-2" d="M291.83,25.08,271.31,71.55,254.72,35.37,238.13,71.55,217.61,25.08h5.61l15,33.93,16.53-36,16.53,36,15-33.93Z" transform="translate(0.1 -0.3)"/><path class="cls-2" d="M315.56,22.52a23.38,23.38,0,0,1,9.28,1.87,24.07,24.07,0,0,1,12.77,12.79,24.11,24.11,0,0,1,0,18.62,24.23,24.23,0,0,1-5.14,7.61,24,24,0,0,1-7.63,5.14,24,24,0,0,1-18.59,0,24.07,24.07,0,0,1-7.6-5.14,24.4,24.4,0,0,1-5.14-7.61,24.11,24.11,0,0,1,0-18.62,24.15,24.15,0,0,1,12.74-12.79A23.35,23.35,0,0,1,315.56,22.52Zm0,42.79a18.36,18.36,0,0,0,7.31-1.47,18.72,18.72,0,0,0,10-10,18.84,18.84,0,0,0,0-14.59,18.72,18.72,0,0,0-10-10,18.91,18.91,0,0,0-14.62,0,18.89,18.89,0,0,0-6,4,18.7,18.7,0,0,0-4,6,18.84,18.84,0,0,0,0,14.59,18.74,18.74,0,0,0,10,10A18.4,18.4,0,0,0,315.56,65.31Z" transform="translate(0.1 -0.3)"/><path class="cls-2" d="M366.71,55H350.77V67.93h-5.11V25.14h24.17a14.48,14.48,0,0,1,5.81,1.19,14.8,14.8,0,0,1,7.94,7.92,14.77,14.77,0,0,1-2.12,15.12,16.33,16.33,0,0,1-3.65,3.28,13.78,13.78,0,0,1-4.58,1.93l11.85,13.16-3.82,3.43Zm12.94-14.94a9.35,9.35,0,0,0-1.15-4.88,8.4,8.4,0,0,0-3.06-3,13.3,13.3,0,0,0-4.37-1.53,29.1,29.1,0,0,0-5.08-.43H350.77V49.9H366a29.1,29.1,0,0,0,5.08-.43A13.52,13.52,0,0,0,375.44,48a8.43,8.43,0,0,0,3.06-3A9.35,9.35,0,0,0,379.65,40.08Z" transform="translate(0.1 -0.3)"/><path class="cls-2" d="M422.19,71.86,396.8,46.47v20.9h-5.11V24.58h5.11v20.9l25.39-25.39,3.36,3.37L403,46l22.51,22.52Z" transform="translate(0.1 -0.3)"/><path class="cls-2" d="M432.73,67.87V25.08h5.11V67.87Z" transform="translate(0.1 -0.3)"/><path class="cls-2" d="M487.86,25.08V71.42L449.63,33.75V67.8h-5.12V21.46l38.24,37.68V25.08Z" transform="translate(0.1 -0.3)"/><path class="cls-2" d="M544,48.72c0,.87,0,1.72,0,2.56h-7.93a20.63,20.63,0,0,1-2.74,6.58,22.44,22.44,0,0,1-4.68,5.27,21.29,21.29,0,0,1-6.14,3.49A21.37,21.37,0,0,1,507,66.18a21.47,21.47,0,0,1-6.8-4.59,21.77,21.77,0,0,1-4.58-6.81,21.42,21.42,0,0,1,0-16.68A21.47,21.47,0,0,1,507,26.71,20.63,20.63,0,0,1,515.3,25a21.41,21.41,0,0,1,12.2,3.8,21.74,21.74,0,0,1,4.55,4.28,21.24,21.24,0,0,1,3.15,5.45h-5.67a16.26,16.26,0,0,0-5.84-6.1,16.31,16.31,0,0,0-14.72-1,16.45,16.45,0,0,0-8.67,8.69,16.3,16.3,0,0,0-.06,12.47,16.4,16.4,0,0,0,3.4,5.18,17.14,17.14,0,0,0,5.18,3.63,15.43,15.43,0,0,0,6.48,1.37,16,16,0,0,0,5.21-.84A16.51,16.51,0,0,0,525,59.52a16.31,16.31,0,0,0,3.55-3.63,15.56,15.56,0,0,0,2.25-4.61h-9.36V46.16h22.58C544.06,47,544.05,47.85,544,48.72Z" transform="translate(0.1 -0.3)"/><path class="cls-3" d="M130.09,85.17a5.2,5.2,0,0,1,2,.38,4.6,4.6,0,0,1,2.57,2.6,5.15,5.15,0,0,1,.36,1.94,5,5,0,0,1-.37,1.93,4.77,4.77,0,0,1-1,1.56,5,5,0,0,1-1.56,1,4.91,4.91,0,0,1-2,.39h-6.3v4.26H122.1V85.15h8Zm0,8.16a3.4,3.4,0,0,0,2.37-5.68,3.64,3.64,0,0,0-2.5-.79h-6.16v6.51Z" transform="translate(0.1 -0.3)"/><path class="cls-3" d="M155,84.31a7.71,7.71,0,0,1,3.06.61,8.12,8.12,0,0,1,2.52,1.7,8,8,0,0,1,1.7,2.53,7.94,7.94,0,0,1,0,6.15,8,8,0,0,1-4.22,4.21,7.91,7.91,0,0,1-6.14,0,8,8,0,0,1-4.21-4.21,8.06,8.06,0,0,1,0-6.15,8,8,0,0,1,1.7-2.53,8.19,8.19,0,0,1,2.51-1.7A7.7,7.7,0,0,1,155,84.31Zm0,14.13a6.14,6.14,0,0,0,2.41-.48,6.33,6.33,0,0,0,2-1.33,6.22,6.22,0,0,0,1.33-2,6.21,6.21,0,0,0-1.33-6.8,6.27,6.27,0,0,0-6.81-1.33,6.27,6.27,0,0,0-2,1.33,6.25,6.25,0,0,0-1.33,6.8A6.19,6.19,0,0,0,152.62,98,6.15,6.15,0,0,0,155,98.44Z" transform="translate(0.1 -0.3)"/><path class="cls-3" d="M182.07,95H176.8V99.3h-1.68V85.17h8a4.78,4.78,0,0,1,1.92.39,4.85,4.85,0,0,1,2.62,2.62,4.76,4.76,0,0,1,.39,1.91,4.64,4.64,0,0,1-.29,1.66,4.71,4.71,0,0,1-.8,1.42,5.2,5.2,0,0,1-1.2,1.09,4.77,4.77,0,0,1-1.52.64l3.92,4.34-1.26,1.14Zm4.27-4.93a3,3,0,0,0-.38-1.62,2.79,2.79,0,0,0-1-1,4.55,4.55,0,0,0-1.44-.51,10.2,10.2,0,0,0-1.68-.14h-5v6.49h5a10.2,10.2,0,0,0,1.68-.14A4.55,4.55,0,0,0,185,92.7a2.71,2.71,0,0,0,1-1A3,3,0,0,0,186.34,90.11Z" transform="translate(0.1 -0.3)"/><path class="cls-3" d="M215.2,86c0,.28,0,.56,0,.84h-6.86V99.28h-1.69V86.84h-6.86V85.15h15.43C215.21,85.42,215.21,85.71,215.2,86Z" transform="translate(0.1 -0.3)"/><path class="cls-3" d="M250.79,85.17a6.86,6.86,0,0,1,2.75.56,7,7,0,0,1,3.76,3.75,7,7,0,0,1,0,5.49,7.12,7.12,0,0,1-1.51,2.25,7.29,7.29,0,0,1-2.25,1.51,6.86,6.86,0,0,1-2.75.55h-6.72V85.17Zm0,12.42a5.24,5.24,0,0,0,2.09-.42,5.43,5.43,0,0,0,2.87-2.86,5.39,5.39,0,0,0,0-4.17,5.43,5.43,0,0,0-2.87-2.86,5.24,5.24,0,0,0-2.09-.42h-5V97.57Z" transform="translate(0.1 -0.3)"/><path class="cls-3" d="M271.93,84.78h1.77l-2,6.47h-1.42Z" transform="translate(0.1 -0.3)"/><path class="cls-3" d="M301.56,99.28h-1.94L298.1,96.5l-4.72.33-4.86-.31L287,99.28h-1.93l8.22-15Zm-12.34-4h8.18l-4.08-7.48Z" transform="translate(0.1 -0.3)"/><path class="cls-3" d="M327.17,85.15v15.31L314.54,88V99.26h-1.69V84L325.48,96.4V85.15Z" transform="translate(0.1 -0.3)"/><path class="cls-3" d="M346.23,85.17a6.9,6.9,0,0,1,2.75.56,7.13,7.13,0,0,1,3.76,3.75,7.13,7.13,0,0,1,0,5.49,7.15,7.15,0,0,1-1.52,2.25A7.25,7.25,0,0,1,349,98.73a6.89,6.89,0,0,1-2.75.55h-6.72V85.17Zm0,12.42a5.27,5.27,0,0,0,2.09-.42A5.42,5.42,0,0,0,350,96a5.36,5.36,0,0,0,1.15-1.71,5.39,5.39,0,0,0,0-4.17,5.36,5.36,0,0,0-2.86-2.86,5.27,5.27,0,0,0-2.09-.42h-5V97.57Z" transform="translate(0.1 -0.3)"/><path class="cls-3" d="M372.61,95h-5.26V99.3h-1.69V85.17h8a4.78,4.78,0,0,1,1.92.39,4.85,4.85,0,0,1,2.62,2.62,4.76,4.76,0,0,1,.39,1.91,4.86,4.86,0,0,1-.28,1.66,5,5,0,0,1-.81,1.42,5.2,5.2,0,0,1-1.2,1.09,4.77,4.77,0,0,1-1.52.64l3.92,4.34-1.26,1.14Zm4.27-4.93a3,3,0,0,0-.38-1.62,2.79,2.79,0,0,0-1-1,4.55,4.55,0,0,0-1.44-.51,10.2,10.2,0,0,0-1.68-.14h-5v6.49h5a10.2,10.2,0,0,0,1.68-.14,4.55,4.55,0,0,0,1.44-.51,2.71,2.71,0,0,0,1-1A3,3,0,0,0,376.88,90.11Z" transform="translate(0.1 -0.3)"/><path class="cls-3" d="M406.45,99.28h-1.94L403,96.5l-4.72.33-4.86-.31-1.51,2.76H390l8.22-15Zm-12.34-4h8.18l-4.08-7.48Z" transform="translate(0.1 -0.3)"/><path class="cls-3" d="M432.48,86c0,.28,0,.56,0,.84h-6.86V99.28h-1.69V86.84h-6.86V85.15h15.43C432.49,85.42,432.49,85.71,432.48,86Z" transform="translate(0.1 -0.3)"/><path class="cls-3" d="M452.48,92.22l7.07,7.06h-2.4l-5.87-5.87-5.87,5.87H443l7.07-7.06L443,85.15h2.39L451.28,91l5.87-5.87h2.4Z" transform="translate(0.1 -0.3)"/><ellipse class="cls-4" cx="57.35" cy="58.53" rx="54.36" ry="54.33"/><path class="cls-5" d="M76.93,109a52.91,52.91,0,0,1-18.35,3.29,56.82,56.82,0,0,1-19.77-3.09l2.1-43.51L40.2,65c-.22-.25-.62-.45-.38-.69l1.09-.85V60l-2.5-2.77V55.6l-1.6-1.18V52.64l.9-1V41.22H48.32V29.56c0-1.17,0-2.33,0-3.49h1.09L56,21.65v-.88h-.65a5.68,5.68,0,0,1,1.48-2.67c1-1,.62-1,1-1s.07.09,1.11,1a4,4,0,0,1,1.35,2.67h-.8v.88l7.79,4.42h.92v3.49L68,40.77l10.21.3V51.6l.9,1v1.78l-1,1.18v1.63l-3.15,2.52-.3,3.71,1.17.85c.42.21.34.33,0,.69l-.9.69Z" transform="translate(0.1 -0.3)"/><path class="cls-6" d="M61.68,123.3" transform="translate(0.1 -0.3)"/><rect class="cls-7" x="54.49" y="28.43" width="7.15" height="10.33"/><polygon class="cls-3" points="52.12 33.33 7 38.98 6 40.98 5 42.98 5 43.98 4.2 45.98 3.99 47.47 4 48.98 3.51 49.53 3.77 50.61 52.12 33.33"/><polyline class="cls-3" points="16.07 23.95 15 23.99 14 25.99 13 26.99 12 27.99 11.42 28.99 11 29.99 10 31.99 9 33.98 53.29 34.03 16.07 23.95"/><polygon class="cls-3" points="53.6 34.83 26 13.99 25 14.99 23 15.99 22 16.99 20 18.99 17.68 20.95 53.6 34.83"/><polygon class="cls-3" points="64.43 33.94 108.06 39.6 109.02 41.6 109.99 43.6 109.99 44.6 110.76 46.6 110.96 48.09 110.95 49.6 111.43 50.15 111.18 51.24 64.43 33.94"/><polyline class="cls-3" points="99.28 24.57 100.32 24.6 101.29 26.6 102.25 27.6 103.22 28.6 103.78 29.6 104.19 30.6 105.16 32.6 106.12 34.6 63.3 34.65 99.28 24.57"/><polygon class="cls-3" points="63 35.45 89.69 14.6 90.65 15.6 92.59 16.6 93.55 17.6 95.49 19.6 97.73 21.56 63 35.45"/><polygon class="cls-8" points="67.68 111.64 63.13 112.17 59.62 112.37 56.14 112.37 51.97 112.11 48.46 111.64 50.43 91.9 65.72 91.9 67.68 111.64"/></svg>